<?xml version="1.0" encoding="UTF-8" standalone="no"?>
<!DOCTYPE svg PUBLIC "-//W3C//DTD SVG 1.1//EN" "http://www.w3.org/Graphics/SVG/1.1/DTD/svg11.dtd">
<svg width="100%" height="100%" viewBox="0 0 512 512" version="1.1" xmlns="http://www.w3.org/2000/svg" xmlns:xlink="http://www.w3.org/1999/xlink" xml:space="preserve" xmlns:serif="http://www.serif.com/" style="fill-rule:evenodd;clip-rule:evenodd;stroke-linecap:round;stroke-miterlimit:2;">
    <g id="Layer1">
        <rect x="0" y="0" width="512" height="512"/>
    </g>
    <path d="M284.846,121.572L226.611,121.721L229.012,129.739C229.012,129.739 294.216,347.347 296.166,351.896C297.556,355.14 300.083,362.906 308.246,368.756C313.584,372.582 321.409,375.691 333.23,375.792C362.786,376.045 368.954,353.851 369.384,352.148C369.382,352.155 437.42,120.445 437.42,120.445L379.311,120.607L332.948,288.153C332.948,288.153 284.846,121.572 284.846,121.572ZM234.997,127.947L280.15,127.831L333.076,311.116L384.068,126.841L429.068,126.716L363.347,350.531C363.347,350.531 358.547,369.761 333.284,369.545C308.021,369.329 303.851,353.969 301.908,349.435C299.965,344.9 234.997,127.947 234.997,127.947Z" style="fill:white;"/>
    <path d="M229.744,175.284C229.744,175.284 215.19,126.232 215.194,126.184C199.77,123.718 119.998,122.555 96.238,202.592C95.01,206.761 94.443,211.096 94.557,215.441C94.645,245.408 95.268,372.364 95.268,372.364L145.451,372.438C145.451,372.438 145.585,226.409 145.585,226.354C145.585,226.341 145.585,226.327 145.585,226.313C145.619,224.532 147.345,165.968 229.744,175.284Z" style="fill:none;stroke:white;stroke-width:6.25px;"/>
</svg>
